<svg xmlns="http://www.w3.org/2000/svg" viewBox="0 0 520 380" width="520" height="380"
     role="img" aria-label="Measured displacement vs the fitted cubic-bezier vs the ground truth">
  <title>Measured displacement vs the fitted cubic-bezier vs the ground truth</title>
  <style>
    /* Embedded via an img element, so this SVG follows the OS colour scheme rather
       than the page theme toggle. Every colour must read on light and dark. */
    .ink   { fill:#8b90a3; font:11px ui-monospace,SFMono-Regular,Menlo,monospace }
    .ink-b { fill:#a2a8bd; font:12px ui-monospace,SFMono-Regular,Menlo,monospace }
    .ax    { stroke:rgba(129,140,248,.28); stroke-width:1 }
    /* no stroke-width here: a CSS declaration would override the per-polyline
       stroke-width presentation attribute, flattening every curve to one weight. */
    .trace { fill:none; stroke-linejoin:round; stroke-linecap:round }
    /* The trace is drawn solid by default. The draw-on is a pure enhancement: if the
       animation never runs, the figure must still show the curve, not an empty grid. */
    @media (prefers-reduced-motion:no-preference) {
      .draw { stroke-dasharray:var(--len); stroke-dashoffset:var(--len);
               animation:draw 2.6s cubic-bezier(.4,0,.2,1) .2s forwards }
    }
    @keyframes draw { to { stroke-dashoffset:0 } }
  </style>
  <line class="ax" x1="52" y1="90.5" x2="502" y2="90.5"/>
  <line class="ax" x1="52" y1="159.0" x2="502" y2="159.0"/>
  <line class="ax" x1="52" y1="227.5" x2="502" y2="227.5"/>
  <line class="ax" x1="52" y1="296" x2="502" y2="296"/>
  <line class="ax" x1="52" y1="22" x2="52" y2="296"/>
  <polyline class="trace" points="52.0,296.0 55.8,296.0 59.5,295.9 63.2,295.8 67.0,295.7 70.8,295.5 74.5,295.3 78.2,295.1 82.0,294.8 85.8,294.5 89.5,294.1 93.2,293.7 97.0,293.3 100.8,292.8 104.5,292.3 108.2,291.7 112.0,291.1 115.8,290.5 119.5,289.8 123.2,289.1 127.0,288.4 130.8,287.6 134.5,286.8 138.2,285.9 142.0,285.0 145.8,284.1 149.5,283.1 153.2,282.1 157.0,281.1 160.8,280.0 164.5,278.9 168.2,277.7 172.0,276.5 175.8,275.3 179.5,274.0 183.2,272.7 187.0,271.3 190.8,270.0 194.5,268.5 198.2,267.1 202.0,265.6 205.8,264.0 209.5,262.4 213.2,260.8 217.0,259.2 220.8,257.5 224.5,255.7 228.2,254.0 232.0,252.2 235.8,250.3 239.5,248.4 243.2,246.5 247.0,244.5 250.8,242.6 254.5,240.5 258.2,238.4 262.0,236.3 265.8,234.2 269.5,232.0 273.2,229.8 277.0,227.5 280.8,225.2 284.5,222.9 288.2,220.5 292.0,218.1 295.8,215.6 299.5,213.1 303.2,210.6 307.0,208.0 310.8,205.4 314.5,202.8 318.2,200.1 322.0,197.4 325.8,194.6 329.5,191.8 333.2,189.0 337.0,186.1 340.8,183.2 344.5,180.2 348.2,177.2 352.0,174.2 355.8,171.2 359.5,168.1 363.2,164.9 367.0,161.7 370.8,158.5 374.5,155.3 378.2,152.0 382.0,148.6 385.8,145.3 389.5,141.9 393.2,138.4 397.0,134.9 400.8,131.4 404.5,127.9 408.2,124.3 412.0,120.6 415.8,117.0 419.5,113.3 423.2,109.5 427.0,105.7 430.8,101.9 434.5,98.0 438.2,94.1 442.0,90.2 445.8,86.2 449.5,82.2 453.2,78.2 457.0,74.1 460.8,69.9 464.5,65.8 468.2,61.6 472.0,57.3 475.8,53.0 479.5,48.7 483.2,44.4 487.0,40.0 490.8,35.5 494.5,31.1 498.2,26.5 502.0,22.0" stroke="#34d399" stroke-width="9" opacity=".85"/>
  <polyline class="trace" points="52.0,296.0 55.8,296.0 59.7,296.0 63.5,296.0 67.4,296.0 71.2,296.0 75.1,296.0 78.9,294.8 82.8,294.8 86.6,294.8 90.5,294.0 94.3,294.0 98.2,293.2 102.0,293.2 105.8,292.4 109.7,291.6 113.5,290.7 117.4,290.7 121.2,289.9 125.1,289.0 128.9,288.2 132.8,287.4 136.6,286.5 140.5,285.7 144.3,284.9 148.2,283.9 152.0,283.0 155.8,281.3 159.7,280.5 163.5,279.6 167.4,278.0 171.2,277.2 175.1,275.5 178.9,274.6 182.8,272.8 186.6,271.9 190.5,270.2 194.3,268.6 198.2,266.9 202.0,266.1 205.8,264.4 209.7,262.6 213.5,260.9 217.4,259.2 221.2,257.5 225.1,255.9 228.9,254.2 232.8,251.5 236.6,249.8 240.5,248.1 244.3,245.6 248.2,243.9 252.0,242.3 255.8,239.6 259.7,237.9 263.5,235.4 267.4,232.9 271.2,231.1 275.1,228.5 278.9,226.0 282.8,223.5 286.6,221.9 290.5,219.1 294.3,216.6 298.2,214.1 302.0,211.6 305.8,208.9 309.7,206.4 313.5,203.1 317.4,200.6 321.2,197.9 325.1,194.5 328.9,192.0 332.8,189.5 336.6,186.0 340.5,183.5 344.3,180.2 348.2,177.5 352.0,174.1 355.8,170.8 359.7,167.4 363.5,164.7 367.4,161.5 371.2,158.1 375.1,154.6 378.9,151.3 382.8,147.9 386.6,144.4 390.5,141.1 394.3,137.0 398.2,133.4 402.0,130.1 405.8,126.8 409.7,122.4 413.5,119.1 417.4,115.0 421.2,111.4 425.1,107.3 428.9,103.9 432.8,99.5 436.6,95.4 440.5,91.9 444.3,87.8 448.2,83.6 452.0,79.2 455.8,75.2 459.7,70.8 463.5,66.6 467.4,62.5 471.2,58.1 475.1,54.0 478.9,49.6 482.8,44.7 486.6,40.5 490.5,36.1 494.3,31.3 498.2,26.9 502.0,22.0" stroke="#22d3ee" stroke-width="2"/>
  <polyline class="trace" points="52.0,296.0 55.8,296.0 59.5,295.9 63.2,295.7 67.0,295.4 70.8,295.1 74.5,294.8 78.2,294.3 82.0,293.9 85.8,293.3 89.5,292.7 93.2,292.0 97.0,291.3 100.8,290.6 104.5,289.7 108.2,288.9 112.0,288.0 115.8,287.0 119.5,286.0 123.2,284.9 127.0,283.8 130.8,282.7 134.5,281.5 138.2,280.2 142.0,278.9 145.8,277.6 149.5,276.2 153.2,274.8 157.0,273.4 160.8,271.9 164.5,270.4 168.2,268.8 172.0,267.2 175.8,265.6 179.5,263.9 183.2,262.2 187.0,260.5 190.8,258.7 194.5,256.9 198.2,255.1 202.0,253.2 205.8,251.3 209.5,249.4 213.2,247.4 217.0,245.4 220.8,243.4 224.5,241.3 228.2,239.2 232.0,237.1 235.8,235.0 239.5,232.8 243.2,230.6 247.0,228.4 250.8,226.1 254.5,223.8 258.2,221.5 262.0,219.2 265.8,216.8 269.5,214.4 273.2,212.0 277.0,209.6 280.8,207.1 284.5,204.6 288.2,202.1 292.0,199.6 295.8,197.0 299.5,194.4 303.2,191.8 307.0,189.2 310.8,186.5 314.5,183.9 318.2,181.1 322.0,178.4 325.8,175.7 329.5,172.9 333.2,170.1 337.0,167.3 340.8,164.5 344.5,161.6 348.2,158.7 352.0,155.8 355.8,152.9 359.5,149.9 363.2,147.0 367.0,144.0 370.8,141.0 374.5,137.9 378.2,134.9 382.0,131.8 385.8,128.7 389.5,125.6 393.2,122.5 397.0,119.3 400.8,116.1 404.5,112.9 408.2,109.7 412.0,106.5 415.8,103.2 419.5,100.0 423.2,96.7 427.0,93.3 430.8,90.0 434.5,86.6 438.2,83.2 442.0,79.8 445.8,76.4 449.5,73.0 453.2,69.5 457.0,66.0 460.8,62.5 464.5,58.9 468.2,55.4 472.0,51.8 475.8,48.2 479.5,44.5 483.2,40.9 487.0,37.2 490.8,33.4 494.5,29.7 498.2,25.9 502.0,22.0" stroke="#e879f9" stroke-width="2" stroke-dasharray="6 4"/>
  <rect x="52" y="317" width="16" height="3" rx="1.5" fill="#34d399"/>
  <text class="ink" x="76" y="324" fill="#34d399">ground truth</text>
  <text class="ink" x="170" y="324">x&#178; — how the clip was authored</text>
  <rect x="52" y="334" width="16" height="3" rx="1.5" fill="#22d3ee"/>
  <text class="ink" x="76" y="341" fill="#22d3ee">measured</text>
  <text class="ink" x="170" y="341">running integral of the energy curve</text>
  <rect x="52" y="351" width="16" height="3" rx="1.5" fill="#e879f9"/>
  <text class="ink" x="76" y="358" fill="#e879f9">fitted</text>
  <text class="ink" x="170" y="358">cubic-bezier(0.42,0,1,1) · rmse 0.047</text>
  <text class="ink" x="44" y="27" text-anchor="end">1</text>
  <text class="ink" x="44" y="300" text-anchor="end">0</text>
  <text class="ink" x="277.0" y="314" text-anchor="middle">time &#8594;</text>
  <text class="ink" x="8" y="159.0" transform="rotate(-90 8 159.0)" text-anchor="middle">displacement</text>
</svg>
