<svg xmlns="http://www.w3.org/2000/svg" viewBox="0 0 880 300" width="880" height="300"
     role="img" aria-label="Motion-energy curve of the ambient loop, with the hold threshold">
  <title>Motion-energy curve of the ambient loop, with the hold threshold</title>
  <style>
    /* Embedded via an img element, so this SVG follows the OS colour scheme rather
       than the page theme toggle. Every colour must read on light and dark. */
    .ink   { fill:#8b90a3; font:11px ui-monospace,SFMono-Regular,Menlo,monospace }
    .ink-b { fill:#a2a8bd; font:12px ui-monospace,SFMono-Regular,Menlo,monospace }
    .ax    { stroke:rgba(129,140,248,.28); stroke-width:1 }
    /* no stroke-width here: a CSS declaration would override the per-polyline
       stroke-width presentation attribute, flattening every curve to one weight. */
    .trace { fill:none; stroke-linejoin:round; stroke-linecap:round }
    /* The trace is drawn solid by default. The draw-on is a pure enhancement: if the
       animation never runs, the figure must still show the curve, not an empty grid. */
    @media (prefers-reduced-motion:no-preference) {
      .draw { stroke-dasharray:var(--len); stroke-dashoffset:var(--len);
               animation:draw 2.6s cubic-bezier(.4,0,.2,1) .2s forwards }
    }
    @keyframes draw { to { stroke-dashoffset:0 } }
  </style>
  <rect x="52" y="26" width="810" height="224.4" fill="#818cf8" opacity=".04"/>
  <rect x="52" y="250.4" width="810" height="15.6" fill="#e879f9" opacity=".05"/>
  <line class="ax" x1="52" y1="266" x2="862" y2="266"/>
  <line class="ax" x1="52" y1="26" x2="52" y2="266"/>
  <line x1="52" y1="250.4" x2="862" y2="250.4" stroke="#e879f9" stroke-width="1.5" stroke-dasharray="5 4" opacity=".85"/>
  <text class="ink" x="58" y="243.4" fill="#e879f9">hold threshold 1.75</text>
  <polyline class="trace draw" style="--len:3583" points="52.0,266.0 58.0,218.6 63.9,159.6 69.9,156.5 75.8,110.5 81.8,168.8 87.7,183.0 93.7,192.1 99.6,234.5 105.6,172.7 111.6,210.0 117.5,241.3 123.5,220.2 129.4,223.9 135.4,223.3 141.3,242.8 147.3,192.2 153.2,197.6 159.2,84.9 165.2,47.6 171.1,41.4 177.1,174.7 183.0,134.0 189.0,152.5 194.9,235.5 200.9,198.6 206.9,179.1 212.8,109.1 218.8,219.9 224.7,166.7 230.7,217.5 236.6,221.6 242.6,245.1 248.5,229.1 254.5,231.6 260.5,220.8 266.4,238.3 272.4,242.8 278.3,253.1 284.3,244.0 290.2,244.9 296.2,247.0 302.1,239.8 308.1,247.1 314.1,256.6 320.0,248.1 326.0,248.8 331.9,241.2 337.9,248.4 343.8,248.6 349.8,246.4 355.8,256.8 361.7,248.3 367.7,248.4 373.6,248.6 379.6,239.6 385.5,245.6 391.5,243.8 397.4,237.6 403.4,232.9 409.4,218.2 415.3,236.7 421.3,196.8 427.2,92.7 433.2,76.0 439.1,39.6 445.1,169.7 451.0,130.3 457.0,181.2 463.0,160.4 468.9,207.4 474.9,204.6 480.8,234.7 486.8,205.2 492.7,223.0 498.7,226.3 504.6,211.7 510.6,228.6 516.6,230.0 522.5,246.8 528.5,231.8 534.4,213.6 540.4,247.4 546.3,229.9 552.3,226.2 558.2,223.0 564.2,218.5 570.2,179.1 576.1,197.7 582.1,232.5 588.0,146.6 594.0,172.4 599.9,160.7 605.9,206.2 611.9,153.5 617.8,164.0 623.8,170.4 629.7,181.9 635.7,195.3 641.6,204.5 647.6,204.5 653.5,213.8 659.5,201.9 665.5,243.8 671.4,223.2 677.4,196.4 683.3,207.5 689.3,184.5 695.2,125.4 701.2,47.7 707.1,45.7 713.1,99.0 719.1,158.8 725.0,194.1 731.0,231.9 736.9,158.6 742.9,177.4 748.8,171.7 754.8,183.8 760.8,207.4 766.7,218.1 772.7,223.2 778.6,225.9 784.6,231.9 790.5,248.2 796.5,235.1 802.4,237.2 808.4,229.1 814.4,244.6 820.3,254.5 826.3,244.8 832.2,237.6 838.2,257.1 844.1,248.4 850.1,238.5 856.0,247.5 862.0,255.5" stroke="#818cf8" stroke-width="2"/>
  <circle cx="439.1" cy="39.6" r="3.5" fill="#22d3ee"/>
  <text class="ink-b" x="448.1" y="31.6">peak 25.3 @ 1.09s</text>
  <text class="ink" x="44" y="31" text-anchor="end">25</text>
  <text class="ink" x="44" y="270" text-anchor="end">0</text>
  <text class="ink" x="52" y="288">0s</text>
  <text class="ink" x="862" y="288" text-anchor="end">2.29s</text>
  <text class="ink" x="457.0" y="288" text-anchor="middle">137 samples @ 60fps &#183; zero image tokens</text>
  <text class="ink" x="6" y="146.0" transform="rotate(-90 6 146.0)" text-anchor="middle">energy</text>
</svg>
